<svg width="120" height="120" viewBox="0 0 120 120" fill="none" xmlns="http://www.w3.org/2000/svg">
<path fillRule="evenodd" clipRule="evenodd" d="M59.9782 120C93.1152 120.012 119.988 93.1589 120 60.0218C120.012 26.8847 93.1589 0.0120614 60.0218 4.05881e-06C26.8847 -0.0120533 0.0120614 26.8411 4.05881e-06 59.9782C-0.0120533 93.1152 26.8411 119.988 59.9782 120ZM59.9777 114.998C90.3534 115.009 114.987 90.3939 114.998 60.0182C115.009 29.6425 90.3934 5.00924 60.0178 4.99818C29.6421 4.98713 5.00882 29.6025 4.99776 59.9782C4.98671 90.3538 29.6021 114.987 59.9777 114.998Z" fill="black"/>
<path d="M43.4816 99.3302C40.2176 99.3302 37.9456 98.6582 36.6656 97.3142C35.3856 95.9702 34.7456 94.2422 34.7456 92.1302C34.7456 90.2742 35.0976 88.0662 35.8016 85.5062C36.5696 82.8822 37.3376 80.3862 38.1056 78.0182C39.5136 73.9862 41.0176 69.7942 42.6176 65.4422C44.2816 61.0902 45.9456 56.7702 47.6096 52.4822C49.3376 48.1942 51.0336 44.0662 52.6976 40.0982C54.3616 36.1302 55.9296 32.5142 57.4016 29.2502C53.0496 29.3142 49.3056 29.4422 46.1696 29.6342C43.0976 29.7622 40.2816 29.9542 37.7216 30.2102C35.2256 30.4662 32.5696 30.8502 29.7536 31.3622C30.0096 28.8662 31.1936 26.9462 33.3056 25.6022C35.4816 24.1942 38.3936 23.2342 42.0416 22.7222C45.6896 22.1462 49.8176 21.8582 54.4256 21.8582C57.6256 21.8582 60.5376 21.9542 63.1616 22.1462C65.7856 22.3382 68.2816 22.5622 70.6496 22.8182C73.0816 23.0102 75.4496 23.1702 77.7536 23.2982C79.6736 24.2582 80.9216 24.8662 81.4976 25.1222C82.1376 25.3782 82.2656 25.5062 81.8816 25.5062C80.4096 26.6582 78.5536 27.5222 76.3136 28.0982C74.1376 28.6102 71.8656 28.9302 69.4976 29.0582C67.1296 29.1862 64.8576 29.2502 62.6816 29.2502C59.9936 35.9702 57.3376 43.3302 54.7136 51.3302C52.1536 59.3302 49.6896 67.6182 47.3216 76.1942C46.4896 79.3942 45.7536 82.1782 45.1136 84.5462C44.5376 86.8502 44.0896 88.9622 43.7696 90.8822C43.4496 92.8022 43.2896 94.7542 43.2896 96.7382C43.2896 97.0582 43.2896 97.4102 43.2896 97.7942C43.3536 98.2422 43.4176 98.7542 43.4816 99.3302ZM81.2756 93.4742C78.9716 93.4742 77.1156 92.8662 75.7076 91.6502C74.2996 90.4342 73.5956 88.8022 73.5956 86.7542C73.5956 84.9622 74.0436 83.0422 74.9396 80.9942C75.8356 78.8822 76.7316 76.8342 77.6276 74.8502C78.5876 72.8022 79.0676 70.9782 79.0676 69.3782C79.0676 67.7142 78.5236 66.4022 77.4356 65.4422C76.4116 64.4182 75.2916 63.5542 74.0756 62.8502C72.6036 66.4982 71.0036 69.9862 69.2756 73.3142C67.6116 76.6422 66.2356 79.2022 65.1476 80.9942L63.8996 78.5942C64.7956 76.9302 65.9796 74.5622 67.4516 71.4902C68.9236 68.3542 70.3316 64.8342 71.6756 60.9302C71.0356 60.2902 70.7156 59.4582 70.7156 58.4342C70.7156 56.7062 71.2276 55.1382 72.2516 53.7302C73.3396 52.3222 74.2996 51.6182 75.1316 51.6182C75.8356 51.6182 76.3156 52.0342 76.5716 52.8662C76.8916 53.6342 77.0516 54.1782 77.0516 54.4982C77.0516 54.8182 76.8916 55.4262 76.5716 56.3222C76.2516 57.1542 76.0596 57.7302 75.9956 58.0502C75.9956 58.8182 76.5076 59.5542 77.5316 60.2582C78.6196 60.8982 79.8036 61.6982 81.0836 62.6582C82.4276 63.5542 83.6116 64.6742 84.6356 66.0182C85.6596 67.2982 86.1716 68.9622 86.1716 71.0102C86.1716 72.9302 85.7556 74.8502 84.9236 76.7702C84.0916 78.6902 83.2596 80.5142 82.4276 82.2422C81.5956 83.9702 81.1796 85.4422 81.1796 86.6582C81.1796 87.6822 81.4356 88.3542 81.9476 88.6742C82.4596 88.9942 83.0676 89.1542 83.7716 89.1542C85.3076 89.1542 86.9076 88.6742 88.5716 87.7142C90.2356 86.7542 91.8356 85.5382 93.3716 84.0662C94.9716 82.5942 96.3796 81.0582 97.5956 79.4582C98.8116 77.7942 99.7396 76.2902 100.38 74.9462L102.3 76.3862C101.084 79.1382 99.3556 81.8262 97.1156 84.4502C94.8756 87.0742 92.3796 89.2502 89.6276 90.9782C86.8756 92.6422 84.0916 93.4742 81.2756 93.4742Z" fill="black"/>
</svg>
